<svg width="300" height="294" viewBox="0 0 300 294" fill="none" xmlns="http://www.w3.org/2000/svg">
<path d="M52.5694 264.375C52.9337 264.588 53.0308 265.141 52.5694 265.141H46.1515C45.6901 265.141 45.7569 264.588 46.1515 264.375C46.704 264.071 47.2809 263.275 47.2809 262.57V247.056C47.2809 244.394 44.7732 245.008 43.6439 245.646C42.7878 246.138 42.0531 247.36 41.4702 248.952C41.197 249.718 40.5837 249.286 40.6141 248.952L40.8873 244.364C40.948 244.03 41.1302 243.872 41.4702 243.872H57.2143C57.5786 243.872 57.7668 244.024 57.7972 244.364L58.1008 248.952C58.1311 249.286 57.5179 249.718 57.2143 248.952C56.6314 247.36 55.9028 246.138 55.077 245.646C53.9477 245.002 51.44 244.394 51.44 247.056V262.57C51.44 263.275 52.0229 264.071 52.5694 264.375Z" fill="#F0F0F0"/>
<path d="M63.9418 264.375C64.3365 264.588 64.4033 265.141 63.9418 265.141H57.615C57.1839 265.141 57.2507 264.588 57.615 264.375C58.1676 264.071 58.6533 263.275 58.6533 262.57V245.616C58.6533 244.911 58.1615 244.115 57.615 243.811C57.2507 243.598 57.2204 242.802 57.615 242.802H62.0474C62.5089 242.802 62.8125 243.106 62.8125 243.568V252.592C66.2673 248.642 72.9037 250.295 72.9037 254.397V262.564C72.9037 263.269 73.4866 264.065 74.0331 264.369C74.4277 264.582 74.4945 265.135 74.0331 265.135H67.7063C67.2448 265.135 67.342 264.582 67.7063 264.369C68.2588 264.065 68.7446 263.269 68.7446 262.564V254.701C68.7446 249.961 62.8125 253.169 62.8125 254.367V262.564C62.8125 263.269 63.3953 264.065 63.9418 264.369V264.375Z" fill="#F0F0F0"/>
<path d="M86.6623 261.774C86.1705 264.041 83.6993 265.597 81.1006 265.597C76.9414 265.597 74.1909 262.601 74.1909 258.128C74.1909 253.656 76.9414 250.629 81.1006 250.629C85.2598 250.629 86.632 253.844 86.632 256.414L78.3744 258.402C78.4351 261.555 79.7223 263.05 82.0417 263.05C83.3229 263.05 84.519 262.589 85.3751 261.768C86.3527 260.759 86.8141 261.033 86.6563 261.768L86.6623 261.774ZM82.7157 255.716C82.8978 255.011 83.08 252.258 81.0945 252.258C79.109 252.258 78.5262 254.427 78.4047 256.755L82.7157 255.716Z" fill="#F0F0F0"/>
<path d="M103.627 265.141H95.3693C94.9442 265.141 95.0049 264.588 95.3693 264.375C95.9218 264.071 96.4075 263.275 96.4075 262.57V246.442C96.4075 245.707 95.9157 244.911 95.3693 244.637C95.0049 244.394 94.9442 243.872 95.3693 243.872H103.627C114.726 243.872 110.658 251 106.104 252.805C112.801 252.191 117.203 265.135 103.627 265.135V265.141ZM100.573 252.653C100.573 253.327 100.573 253.419 101.307 253.236C109.468 251.34 106.9 245.069 103.754 245.069C102.164 245.069 100.573 245.561 100.573 247.056V252.653ZM101.301 254.98C100.749 255.163 100.567 255.193 100.567 255.655V261.957C100.567 263.458 102.157 263.883 103.627 263.792C111.028 263.36 108.855 252.501 103.536 254.245L101.301 254.98Z" fill="#F0F0F0"/>
<path d="M124.969 261.774C124.477 264.041 122.006 265.597 119.407 265.597C115.248 265.597 112.498 262.601 112.498 258.128C112.498 253.656 115.248 250.629 119.407 250.629C123.567 250.629 124.939 253.844 124.939 256.414L116.681 258.402C116.742 261.555 118.029 263.05 120.349 263.05C121.63 263.05 122.826 262.589 123.682 261.768C124.659 260.759 125.121 261.033 124.963 261.768L124.969 261.774ZM121.023 255.716C121.205 255.011 121.387 252.258 119.401 252.258C117.416 252.258 116.833 254.427 116.712 256.755L121.023 255.716Z" fill="#F0F0F0"/>
<path d="M131.387 265.597C128.205 261.221 127.015 257.46 125.06 252.41C124.908 251.954 124.386 251.431 124.022 251.249C123.749 251.097 123.718 250.696 124.022 250.696H129.802C130.106 250.696 130.015 251.03 129.802 251.249C129.28 251.741 129.341 251.924 129.65 252.811C130.841 256.086 131.393 257.156 133.014 260.34C134.174 258.687 135.34 254.221 135.4 253.668C135.552 252.507 135.309 251.559 134.818 251.249C134.544 251.097 134.514 250.696 134.818 250.696H138.394C138.728 250.696 138.758 251.061 138.485 251.249C138.272 251.401 137.932 251.31 137.598 252.41C136.038 257.277 133.779 264.77 133.014 265.597H131.393H131.387Z" fill="#F0F0F0"/>
<path d="M149.948 261.774C149.457 264.041 146.985 265.597 144.387 265.597C140.228 265.597 137.477 262.601 137.477 258.128C137.477 253.656 140.228 250.629 144.387 250.629C148.546 250.629 149.918 253.844 149.918 256.414L141.66 258.402C141.721 261.555 143.008 263.05 145.328 263.05C146.609 263.05 147.805 262.589 148.661 261.768C149.639 260.759 150.1 261.033 149.942 261.768L149.948 261.774ZM146.002 255.716C146.184 255.011 146.366 252.258 144.381 252.258C142.395 252.258 141.812 254.427 141.691 256.755L146.002 255.716Z" fill="#F0F0F0"/>
<path d="M156.397 264.375C156.791 264.588 156.858 265.141 156.397 265.141H150.07C149.645 265.141 149.706 264.588 150.07 264.375C150.622 264.071 151.108 263.275 151.108 262.57V253.145C151.108 252.44 150.616 251.644 150.07 251.34C149.706 251.128 149.675 250.331 150.07 250.331H154.502C154.964 250.331 155.267 250.635 155.267 251.097V252.045C158.54 249.444 162.116 249.906 162.177 253.668C162.238 256.36 158.601 256.633 158.449 253.668C158.358 251.832 156.093 252.902 155.267 254.281V262.576C155.267 263.281 155.85 264.077 156.397 264.381V264.375Z" fill="#F0F0F0"/>
<path d="M170.003 255.497C170.003 252.404 169.026 252.069 168.079 252.069C167.253 252.069 166.397 252.562 166.002 254.488C165.608 256.445 162.153 256.816 162.638 253.965C163.434 249.286 174.193 248.551 174.193 256.105V261.89C174.193 263.816 175.079 262.838 175.693 263.239C176.883 264.77 170.07 267.523 170.003 263.148C165.267 267.493 161.813 265.597 161.655 262.534C161.442 258.28 166.518 256.718 170.003 255.497ZM170.003 257.369C170.003 256.603 165.14 258.778 165.875 261.501C166.366 263.275 167.83 263.306 170.003 261.683V257.369Z" fill="#F0F0F0"/>
<path d="M189.664 249.778C190.247 250.362 189.633 251.735 188.413 252.015C187.988 252.136 187.618 252.349 187.253 252.659C188.474 253.978 188.905 255.843 188.905 257.338C188.905 260.826 186.579 263.123 182.487 263.275C181.327 263.306 180.253 263.184 179.336 262.88C180.896 264.503 189.117 262.971 189.117 268.386C189.117 271.479 186.428 272.913 181.843 272.913C177.259 272.913 174.412 271.503 174.412 269.121C174.412 267.529 175.693 265.846 177.715 264.989C177.101 264.685 176.737 264.314 176.737 263.707C176.737 263.099 177.071 262.485 177.654 262.084C176.245 261.136 175.419 259.574 175.419 257.466C175.419 253.643 178.17 250.641 182.299 250.641C183.859 250.641 185.231 251.073 186.337 251.832C186.519 251.62 186.731 251.31 186.95 250.976C187.836 249.414 189.154 249.262 189.67 249.785L189.664 249.778ZM178.352 268.659C178.352 270.191 179.664 271.048 181.807 271.048C184.163 271.048 185.444 269.978 185.444 268.447C185.444 266.271 182.785 265.937 180.398 265.603C179.33 266.247 178.352 267.316 178.352 268.659ZM182.232 261.714C184.005 261.714 185.013 259.696 185.013 257.217C185.013 254.585 183.944 252.258 182.262 252.258C180.58 252.258 179.573 254.458 179.573 257.217C179.573 259.818 180.55 261.714 182.232 261.714Z" fill="#F0F0F0"/>
<path d="M202.075 261.774C201.583 264.041 199.111 265.597 196.513 265.597C192.354 265.597 189.603 262.601 189.603 258.128C189.603 253.656 192.354 250.629 196.513 250.629C200.672 250.629 202.044 253.844 202.044 256.414L193.787 258.402C193.847 261.555 195.134 263.05 197.454 263.05C198.735 263.05 199.931 262.589 200.787 261.768C201.765 260.759 202.226 261.033 202.068 261.768L202.075 261.774ZM198.134 255.716C198.316 255.011 198.498 252.258 196.513 252.258C194.527 252.258 193.944 254.427 193.823 256.755L198.134 255.716Z" fill="#F0F0F0"/>
<path d="M215.985 261.957C215.985 264.588 221.705 263.974 222.834 263.336C223.69 262.844 224.425 261.622 225.008 260.061C225.281 259.295 225.894 259.696 225.864 260.061L225.591 264.618C225.53 264.983 225.348 265.141 225.008 265.141H210.794C210.369 265.141 210.429 264.588 210.794 264.375C211.346 264.071 211.832 263.275 211.832 262.57V246.442C211.832 245.707 211.34 244.911 210.794 244.637C210.429 244.394 210.369 243.872 210.794 243.872H217.12C217.582 243.872 217.515 244.394 217.12 244.637C216.568 244.911 215.991 245.707 215.991 246.442V261.957H215.985Z" fill="#F0F0F0"/>
<path d="M233.66 255.497C233.66 252.404 232.682 252.069 231.735 252.069C230.909 252.069 230.053 252.562 229.659 254.488C229.264 256.445 225.809 256.816 226.295 253.965C227.09 249.286 237.849 248.551 237.849 256.105V261.89C237.849 263.816 238.736 262.838 239.349 263.239C240.539 264.77 233.727 267.523 233.66 263.148C228.924 267.493 225.469 265.597 225.311 262.534C225.099 258.28 230.175 256.718 233.66 255.497ZM233.66 257.369C233.66 256.603 228.796 258.778 229.531 261.501C230.023 263.275 231.486 263.306 233.66 261.683V257.369Z" fill="#F0F0F0"/>
<path d="M243.842 251.091C244.668 250.848 245.615 250.66 246.623 250.629C250.964 250.447 254.176 253.625 254.176 258.128C254.176 262.631 251.426 265.597 247.267 265.597C245.737 265.597 244.055 265.044 242.895 264.096C241.675 265.074 239.653 266.113 239.653 265.135V245.646C239.653 244.941 239.191 244.145 238.645 243.872C238.25 243.629 238.214 242.833 238.645 242.833H243.077C243.539 242.833 243.842 243.136 243.842 243.598V251.097V251.091ZM246.313 263.701C248.73 263.822 250.011 261.464 250.011 258.134C250.011 255.412 249.155 252.076 246.617 252.258C244.383 252.379 243.988 253.637 243.836 255.132V263.056C244.814 263.518 245.973 263.67 246.313 263.701Z" fill="#F0F0F0"/>
<path d="M89.4493 118.864C90.2083 116.117 90.9915 113.693 91.5441 111.219C93.1288 104.091 92.1027 97.2424 89.2611 90.576C85.8123 82.4816 80.9731 75.244 75.6178 68.3285C75.4175 68.0733 75.1382 67.8849 74.5613 67.3623C74.452 68.4683 74.3185 69.2218 74.3124 69.9814C74.3002 85.4836 74.3063 100.986 74.3063 116.488C74.3063 118.129 73.4644 118.951 71.7805 118.955C62.1142 118.955 52.448 118.919 42.7817 118.992C41.0877 119.004 40.6141 118.475 40.6141 116.804C40.6566 84.6936 40.6566 55.7676 40.6141 23.6573C40.6141 21.9679 41.1302 21.4757 42.7999 21.4878C52.5815 21.5547 62.3631 21.5547 72.1448 21.4878C73.8206 21.4757 74.3488 21.9679 74.3306 23.6573C74.2577 32.2257 74.2942 37.6038 74.3063 46.1722C74.3063 46.8953 74.4217 47.6185 74.4885 48.3477C74.6463 48.3842 74.8042 48.4145 74.9681 48.451C75.3385 47.6063 75.7089 46.7677 76.0732 45.923C80.2384 36.1635 85.9763 32.3412 94.9625 26.3797C101.49 22.053 108.654 19.9261 116.499 21.7613C118.831 22.3082 119.936 22.7822 122.109 23.9976C124.562 25.371 124.55 26.2339 124.556 27.109C124.635 43.2492 124.617 54.6251 124.605 70.7654C124.605 71.3123 124.465 71.8531 123.955 72.5216C123.597 71.9868 123.166 71.4824 122.899 70.9051C119.365 63.3698 114.647 56.7156 108.187 51.4287C102.71 46.95 96.5594 44.264 89.2489 44.7866C81.8292 45.3153 75.5692 52.2187 75.9153 59.6446C76.0368 62.1969 77.494 63.9835 79.5402 65.0531C82.6671 66.6817 85.9155 68.1341 89.2307 69.3373C96.2679 71.8835 103.451 74.0347 110.063 77.6809C121.126 83.7821 127.629 92.8731 128.503 105.616C128.752 109.256 128.473 112.939 128.351 116.597C128.303 118.171 127.665 119.028 125.758 119.01C114.289 118.913 102.819 118.961 91.3498 118.955C90.7304 118.955 90.1111 118.9 89.4372 118.87L89.4493 118.864Z" fill="#F0F0F0"/>
<path d="M255.275 177.008C250.97 168.135 243.563 162.563 235.172 158.072C226.222 153.277 216.519 150.342 207.053 146.812C202.172 144.989 197.417 142.789 192.724 140.522C190.405 139.398 188.534 137.532 187.612 135.004C187.065 133.503 186.871 131.941 187.933 130.507C189.026 129.037 190.484 129.438 191.923 129.681C197.424 130.623 201.917 132.962 206.95 135.095C213.174 137.733 219.622 139.817 226.198 141.367C230.843 142.461 235.439 143.481 240.223 142.965C247.054 142.236 256.356 138.559 255.585 130.203C255.506 129.359 255.324 128.526 255.075 127.718C254.444 125.664 253.411 124.886 250.473 125.22C230.709 127.487 210.781 127.712 191.036 125.281C187.751 124.874 185.159 125.652 183.009 127.754C178.474 132.185 176.306 137.666 176.294 143.907C176.282 151.072 178.698 157.519 183.143 163.11C189.761 171.441 198.68 176.874 207.849 181.912C214.097 185.339 220.351 188.76 226.544 192.285C231.073 194.868 235.451 197.742 239.756 200.689C242.124 202.306 243.909 203.618 244.674 205.581C246.089 209.227 245.16 212.916 242.106 215.329C238.718 218.002 232.786 217.237 228.821 216.465C223.496 215.432 217.916 213.566 213.022 211.263C204.807 207.398 199.955 201.425 196.076 193.385C193.999 189.076 193.277 181 187.053 180.587C181.109 180.192 176.968 186.706 175.887 193.045C173.313 208.127 180.708 217.492 192.214 222.554C204.388 227.908 218.438 228.643 232.518 225.872C248.505 222.73 255.883 213.481 258.251 198.635C259.441 191.197 258.627 183.899 255.281 177.008H255.275Z" fill="#F0F0F0"/>
<path d="M175.529 68.6567C175.529 52.6927 175.529 39.907 175.529 23.943C175.529 21.5244 175.535 21.5183 177.921 21.5183C194.339 21.5304 210.763 21.3724 227.175 21.6337C235.603 21.7674 243.235 22.8613 249.774 28.5614C254.456 32.639 256.678 35.9691 258.074 41.9366C259.86 49.5388 259.926 57.1532 257.625 64.7189C255.19 72.7222 250.175 78.6228 242.877 82.4816C233.763 87.3006 224.953 88.5646 214.831 86.7172C213.641 86.4985 212.475 86.0913 211.328 85.6781C209.579 85.0522 209.318 85.1859 209.312 87.1244C209.294 93.0068 209.306 98.8953 209.306 104.778C209.306 108.855 209.264 112.939 209.33 117.017C209.355 118.402 208.972 118.986 207.472 118.973C197.46 118.919 187.442 118.913 177.429 118.973C175.808 118.986 175.504 118.341 175.504 116.901C175.541 100.816 175.529 84.7362 175.529 68.6506V68.6567ZM209.306 51.7569C209.306 57.6393 209.306 63.5217 209.306 69.4042C209.306 73.0746 209.306 76.7451 209.306 80.4094C209.306 81.2906 209.373 82.0077 210.563 82.0502C213.417 82.1535 215.955 81.479 218.104 79.4979C220.496 77.2981 221.923 74.5331 222.864 71.5068C225.378 63.4549 225.991 55.1782 225.433 46.8164C225.056 41.1831 224.358 35.562 222.111 30.2994C220.168 25.7417 217.333 25.3224 211.874 24.9639C209.336 24.7998 209.312 24.8423 209.306 27.3399C209.3 36.5404 209.306 42.5565 209.306 51.763V51.7569Z" fill="#F0F0F0"/>
<path d="M40.6201 175.592C40.6201 159.682 40.6201 143.773 40.6201 127.864C40.6201 126.162 41.4924 125.312 43.237 125.312C59.479 125.324 75.7271 125.178 91.9691 125.409C100.53 125.53 108.509 127.906 115.145 133.704C120.707 138.565 123.609 144.897 124.744 152.032C125.789 158.589 125.643 165.127 123.676 171.575C121.217 179.645 116.201 185.588 108.836 189.477C99.7166 194.29 89.9957 195.524 79.8802 193.683C78.6901 193.464 77.5304 193.032 76.3828 192.625C74.7313 192.036 74.4156 192.2 74.4156 193.98C74.3974 201.965 74.4095 209.951 74.4095 217.929C74.4095 220.087 74.367 223.611 74.4156 225.769C74.4399 226.899 73.9906 227.312 72.8673 227.312C62.6181 227.288 52.369 227.276 42.1259 227.318C40.4501 227.324 40.6262 226.267 40.6262 225.216C40.6262 212.801 40.6262 199.024 40.6262 186.609C40.6262 182.939 40.6262 179.268 40.6262 175.598L40.6201 175.592ZM74.4034 158.82C74.4034 167.905 74.4034 176.989 74.4034 186.074C74.4034 186.597 74.4277 187.126 74.4095 187.648C74.3792 188.578 74.7617 188.997 75.7453 189.034C78.6658 189.137 81.2342 188.378 83.3957 186.305C85.6484 184.148 87.0327 181.48 87.9435 178.569C90.4815 170.463 91.1069 162.131 90.524 153.709C90.1415 148.136 89.4493 142.576 87.2392 137.356C85.2233 132.592 82.2603 128.982 76.5407 128.702C74.8285 128.617 74.3549 129.207 74.367 130.866C74.4338 140.182 74.3974 149.504 74.3974 158.82H74.4034Z" fill="#F0F0F0"/>
<path d="M169.706 68.7296C169.706 84.7543 169.682 100.779 169.742 116.81C169.742 118.457 169.348 119.004 167.623 118.985C157.028 118.906 146.427 118.906 135.832 118.985C134.065 118.998 133.555 118.481 133.561 116.713C133.609 84.6632 133.609 55.7919 133.561 23.7363C133.561 21.9557 134.077 21.4574 135.838 21.4696C146.433 21.5425 157.034 21.5486 167.629 21.4696C169.366 21.4574 169.748 22.0165 169.742 23.6573C169.688 39.7428 169.706 52.644 169.706 68.7296Z" fill="#F0F0F0"/>
<path d="M169.682 175.683C169.682 191.653 169.682 208.99 169.682 224.954C169.682 226.514 168.88 227.294 167.277 227.294C156.797 227.294 146.311 227.258 135.832 227.33C134.107 227.343 133.524 226.911 133.53 225.094C133.585 193.039 133.579 159.616 133.53 127.566C133.53 125.834 133.967 125.257 135.777 125.269C146.433 125.348 157.089 125.336 167.745 125.269C169.287 125.257 169.718 125.707 169.712 127.244C169.663 143.384 169.682 159.531 169.682 175.677V175.683Z" fill="#F0F0F0"/>
</svg>
