<?xml version="1.0" encoding="utf-8"?>
<!-- Generator: Adobe Illustrator 23.0.5, SVG Export Plug-In . SVG Version: 6.00 Build 0)  -->
<svg version="1.1" id="Layer_1" xmlns="http://www.w3.org/2000/svg" xmlns:xlink="http://www.w3.org/1999/xlink" x="0px" y="0px"
	 viewBox="0 0 253.4 87.5" style="enable-background:new 0 0 253.4 87.5;" xml:space="preserve">
<style type="text/css">
	.st0{fill:#5E6E82;}
	.st1{fill-rule:evenodd;clip-rule:evenodd;fill:#8C7A53;}
</style>
<g>
	<path class="st0" d="M108.6,40.5v2.6h-1.2c-0.5,0-1-0.1-1.5-0.4c-0.6-0.3-1.1-0.6-1.6-1.1v1.5H92.2c-2.8,0-4.2,1.7-4.2,5.2
		c0,1.6,0.3,4,1,7.1l-2.5,0.1c-0.8-3.6-1.2-6.4-1.2-8.3c0-1.8,0.3-3.3,0.9-4.3c0.6-1,1.4-1.7,2.4-2.1c-0.4-2.1-0.6-4.5-0.6-7
		c0-1.7,0.1-3.4,0.3-5c0.2-1.7,0.4-3,0.7-4c0.6-0.3,1.5-0.5,2.7-0.7c1.2-0.2,2.4-0.3,3.7-0.3c3.1,0,5.4,0.8,6.8,2.3
		c1.5,1.5,2.2,4,2.2,7.6V39c0.8,1,1.9,1.5,3.1,1.5H108.6z M101.4,40.5v-6.9c0-2.6-0.5-4.4-1.6-5.5c-1.1-1.1-2.7-1.7-5-1.7
		c-1.2,0-2.3,0.1-3.3,0.4c-0.4,2.2-0.6,4.6-0.6,7.1c0,1.2,0.1,2.5,0.2,3.7c0.1,1.2,0.2,2.2,0.4,2.9H101.4z"/>
	<path class="st0" d="M108.6,40.5h9.5v2.6h-9.5V40.5z"/>
	<path class="st0" d="M118.1,40.5h9.5v2.6h-9.5V40.5z"/>
	<path class="st0" d="M127.6,40.5h9.5v2.6h-9.5V40.5z"/>
	<path class="st0" d="M137.1,40.5h9.5v2.6h-9.5V40.5z"/>
	<path class="st0" d="M146.5,40.5h9.5v2.6h-9.5V40.5z"/>
	<path class="st0" d="M156,40.5h9.5v2.6H156V40.5z"/>
	<path class="st0" d="M165.5,40.5h9.5v2.6h-9.5V40.5z"/>
	<path class="st0" d="M175,40.5h9.5v2.6H175V40.5z"/>
	<path class="st0" d="M198.6,40.5v2.6h-14.2v-2.6h5.6V24.2h2.9v16.3H198.6z M187.7,46.1h2.9v3.2h-2.9V46.1z M192.4,46.1h2.9v3.2
		h-2.9V46.1z"/>
	<path class="st0" d="M212.9,40.5v2.6h-14.2v-2.6h5.6V24.2h2.9v16.3H212.9z M201.9,46.1h2.9v3.2h-2.9V46.1z M206.6,46.1h2.9v3.2
		h-2.9V46.1z"/>
	<path class="st0" d="M235.8,40.5v2.6h-23v-2.6h5.4c-0.7-1.3-1-3.5-1-6.4c0-2.6,0.3-4.6,0.8-6c0.5-1.4,1.5-2.4,2.7-3
		c1.3-0.6,3.1-0.9,5.4-0.9c1.9,0,3.7,0.1,5.2,0.3l1.1,0.1v15.9H235.8z M221.5,40.5h8.1V26.9c-1.7-0.1-2.9-0.2-3.6-0.2
		c-1.6,0-2.8,0.2-3.6,0.7s-1.4,1.2-1.7,2.3c-0.3,1-0.5,2.5-0.5,4.3C220.1,37.2,220.6,39.4,221.5,40.5z M221,17.5h2.9v3.2H221V17.5z
		 M225.7,17.5h2.9v3.2h-2.9V17.5z"/>
	<path class="st0" d="M244.4,24.2v18.9h-8.6v-2.6h5.6V24.2H244.4z M239.1,17.5h2.9v3.2h-2.9V17.5z M243.8,17.5h2.9v3.2h-2.9V17.5z"
		/>
</g>
<g>
	<path class="st0" d="M85.4,72.5c-0.6-0.3-1-0.6-1.4-1.1c-0.3-0.5-0.5-1-0.5-1.6c0-0.6,0.1-1.7,0.4-3.2l1.1,0.2
		c-0.2,1.4-0.3,2.4-0.3,2.8c0,0.5,0.1,0.9,0.4,1.2c0.2,0.4,0.6,0.6,1,0.8c0.4,0.2,0.8,0.3,1.3,0.3l3.8,0c0.7,0,1.2-0.2,1.6-0.7
		c0.4-0.4,0.6-1,0.6-1.7c0-0.4-0.1-0.7-0.2-0.9c-0.1-0.2-0.4-0.4-0.7-0.6s-0.8-0.3-1.4-0.4c-0.8-0.2-1.4-0.4-1.9-0.6
		c-0.4-0.2-0.8-0.5-1-0.9c-0.2-0.4-0.3-0.8-0.3-1.4c0-1.8,1.1-2.7,3.2-2.7c0.7,0,1.8,0.1,3,0.3l-0.1,0.9c-1.4-0.2-2.4-0.2-2.9-0.2
		c-1.5,0-2.2,0.5-2.2,1.6c0,0.4,0.1,0.7,0.2,1c0.1,0.2,0.4,0.4,0.7,0.5c0.3,0.1,0.9,0.3,1.6,0.5c0.7,0.2,1.2,0.4,1.6,0.6
		c0.4,0.2,0.7,0.5,0.9,0.9c0.2,0.4,0.3,0.8,0.3,1.4c0,1-0.3,1.9-0.8,2.5c-0.6,0.6-1.3,0.9-2.4,0.9h-3.8C86.6,72.9,86,72.8,85.4,72.5
		z M87.5,74h1.1v1.2h-1.1V74z M89.3,74h1.1v1.2h-1.1V74z"/>
	<path class="st0" d="M96.5,72.9c-0.1,0-0.2,0-0.3,0l-0.3,0v-1c0.5,0,0.8,0.1,0.9,0.1c0.5,0,0.8-0.2,1.1-0.6s0.4-0.9,0.4-1.6V62h1.1
		v7.4c0,2.3-0.8,3.5-2.4,3.5C96.8,72.9,96.6,72.9,96.5,72.9z"/>
	<path class="st0" d="M104.2,68.3v1h-2.5V58.8h1.1v9.5H104.2z"/>
	<path class="st0" d="M113,68.3v1h-8.8v-1h2.1c-0.3-0.5-0.4-1.3-0.4-2.5c0-1,0.1-1.8,0.3-2.3c0.2-0.5,0.6-0.9,1-1.1
		c0.5-0.2,1.2-0.3,2.1-0.3c0.7,0,1.4,0,2,0.1l0.4,0v6.1H113z M107.5,68.3h3.1v-5.2c-0.7,0-1.1-0.1-1.4-0.1c-0.6,0-1.1,0.1-1.4,0.3
		c-0.3,0.2-0.5,0.5-0.7,0.9c-0.1,0.4-0.2,1-0.2,1.7C107,67,107.1,67.9,107.5,68.3z M107.3,59.4h1.1v1.2h-1.1V59.4z M109.1,59.4h1.1
		v1.2h-1.1V59.4z"/>
	<path class="st0" d="M121.9,68.3v1h-1.5c-0.5,0-1-0.1-1.5-0.2c-0.5-0.1-1-0.3-1.4-0.5c-0.4,0.2-0.9,0.4-1.4,0.5
		c-0.5,0.1-1,0.2-1.4,0.2H113v-1h1.7c0.6,0,1.2-0.1,1.8-0.3c-0.7-0.6-1.3-1.2-1.8-2c-0.4-0.8-0.7-1.5-0.7-2.1l0-1
		c1.2-0.7,2.4-1,3.6-1c1.1,0,2.4,0.3,3.6,1l0,1c0,0.4-0.1,0.8-0.3,1.3c-0.2,0.5-0.5,1-0.9,1.5c-0.4,0.5-0.8,0.9-1.3,1.3
		c0.6,0.2,1.2,0.3,1.8,0.3H121.9z M115.7,65.6c0.4,0.7,1,1.3,1.8,1.8c0.7-0.5,1.3-1.1,1.8-1.8c0.5-0.7,0.7-1.4,0.7-2.2
		c-1-0.4-1.8-0.5-2.5-0.5c-0.7,0-1.5,0.2-2.5,0.5C115.1,64.2,115.3,65,115.7,65.6z"/>
	<path class="st0" d="M124.8,58.8v10.5h-2.9v-1h1.8v-9.5H124.8z"/>
	<path class="st0" d="M127.5,58.8h1.1v10.5h-1.1V58.8z"/>
	<path class="st0" d="M142.6,68.3v1h-0.5c-0.2,0-0.4-0.1-0.6-0.2c-0.2-0.1-0.4-0.2-0.6-0.4v0.6h-4.7c-1.1,0-1.6,0.7-1.6,2
		c0,0.6,0.1,1.5,0.4,2.7l-0.9,0c-0.3-1.4-0.5-2.5-0.5-3.2c0-0.7,0.1-1.3,0.4-1.6c0.2-0.4,0.5-0.6,0.9-0.8c-0.2-0.8-0.2-1.7-0.2-2.7
		c0-0.6,0-1.3,0.1-1.9c0.1-0.6,0.2-1.2,0.3-1.6c0.2-0.1,0.6-0.2,1-0.3c0.4-0.1,0.9-0.1,1.4-0.1c1.2,0,2.1,0.3,2.6,0.9
		c0.6,0.6,0.8,1.6,0.8,2.9v2.1c0.3,0.4,0.7,0.6,1.2,0.6H142.6z M139.9,68.3v-2.7c0-1-0.2-1.7-0.6-2.1c-0.4-0.4-1.1-0.6-1.9-0.6
		c-0.5,0-0.9,0-1.3,0.1c-0.2,0.8-0.2,1.8-0.2,2.7c0,0.5,0,0.9,0.1,1.4c0,0.5,0.1,0.8,0.1,1.1H139.9z"/>
	<path class="st0" d="M148.1,68.3v1h-5.5v-1h2.2V62h1.1v6.3H148.1z M143.9,70.5h1.1v1.2h-1.1V70.5z M145.7,70.5h1.1v1.2h-1.1V70.5z"
		/>
	<path class="st0" d="M153.6,68.3v1h-5.5v-1h2.2V62h1.1v6.3H153.6z M149.4,70.5h1.1v1.2h-1.1V70.5z M151.2,70.5h1.1v1.2h-1.1V70.5z"
		/>
	<path class="st0" d="M162.4,68.3v1h-8.8v-1h2.1c-0.3-0.5-0.4-1.3-0.4-2.5c0-1,0.1-1.8,0.3-2.3c0.2-0.5,0.6-0.9,1-1.1
		c0.5-0.2,1.2-0.3,2.1-0.3c0.7,0,1.4,0,2,0.1l0.4,0v6.1H162.4z M156.9,68.3h3.1v-5.2c-0.7,0-1.1-0.1-1.4-0.1c-0.6,0-1.1,0.1-1.4,0.3
		c-0.3,0.2-0.5,0.5-0.7,0.9c-0.1,0.4-0.2,1-0.2,1.7C156.3,67,156.5,67.9,156.9,68.3z M156.7,59.4h1.1v1.2h-1.1V59.4z M158.5,59.4
		h1.1v1.2h-1.1V59.4z"/>
	<path class="st0" d="M167.8,68.3v1h-5.5v-1h2.2V62h1.1v6.3H167.8z M163.7,59.4h1.1v1.2h-1.1V59.4z M165.5,59.4h1.1v1.2h-1.1V59.4z"
		/>
	<path class="st0" d="M170.8,58.8v10.5h-2.9v-1h1.8v-9.5H170.8z"/>
	<path class="st0" d="M173.4,58.8h1.1v10.5h-1.1V58.8z"/>
	<path class="st0" d="M184.5,61.9c0.7,0,1.3,0.1,1.7,0.1v7.3H183c-0.9,0-1.5-0.1-2-0.4c-0.5-0.2-0.9-0.6-1.1-1.2
		c-0.2-0.5-0.3-1.3-0.3-2.2c0-0.9,0.1-1.6,0.3-2.2c0.2-0.5,0.6-0.9,1-1.2c0.5-0.3,1.1-0.4,1.9-0.4C183.2,61.9,183.8,61.9,184.5,61.9
		z M181,67.2c0.2,0.4,0.4,0.7,0.8,0.9c0.4,0.2,0.9,0.3,1.5,0.3h1.9V63c-0.9-0.1-1.5-0.1-2-0.1c-0.9,0-1.5,0.2-1.9,0.6
		c-0.4,0.4-0.5,1.1-0.5,2.1C180.7,66.3,180.8,66.8,181,67.2z M181.6,59.4h1.1v1.2h-1.1V59.4z M183.4,59.4h1.1v1.2h-1.1V59.4z"/>
	<path class="st0" d="M188.3,72.9c-0.1,0-0.2,0-0.3,0l-0.3,0v-1c0.5,0,0.8,0.1,0.9,0.1c0.5,0,0.8-0.2,1.1-0.6s0.4-0.9,0.4-1.6V62
		h1.1v7.4c0,2.3-0.8,3.5-2.4,3.5C188.6,72.9,188.5,72.9,188.3,72.9z"/>
	<path class="st0" d="M193.5,58.8h1.1v10.5h-1.1V58.8z"/>
	<path class="st0" d="M201.3,62.9c0.7,0.8,1.1,2,1.1,3.7v2.7h-5.9v-1h4.7v-1.7c0-1.4-0.3-2.4-0.8-3c-0.6-0.6-1.2-0.9-2-0.9h-1.2
		l-0.1-0.8c0.1,0,0.3-0.1,0.6-0.1c0.3,0,0.6-0.1,0.9-0.1C199.7,61.7,200.6,62.1,201.3,62.9z"/>
	<path class="st0" d="M206.7,72.5l-3,0.6l-0.1-0.5l0.7-0.2c-0.3-0.3-0.5-0.6-0.5-1c0-0.4,0.1-0.7,0.4-0.9c0.3-0.3,0.6-0.4,1-0.4
		c0.2,0,0.4,0,0.6,0.1c0.2,0.1,0.3,0.2,0.4,0.2L206,71c-0.1,0-0.1-0.1-0.3-0.1c-0.1,0-0.3-0.1-0.4-0.1c-0.3,0-0.5,0.1-0.6,0.2
		c-0.2,0.2-0.2,0.4-0.2,0.6c0,0.3,0.1,0.5,0.3,0.7l1.7-0.4L206.7,72.5z M204.4,58.8h1.1v10.5h-1.1V58.8z"/>
	<path class="st0" d="M218.9,68.3v1h-2.8c-0.3-0.2-0.6-0.3-1-0.4c-0.4-0.1-0.9-0.2-1.3-0.2c-0.7,0-1.1,0.2-1.5,0.5
		c-0.3,0.3-0.5,0.8-0.5,1.5c0,0.7,0.2,1.3,0.6,1.7c0.4,0.4,1,0.6,1.8,0.6c0.7,0,1.6-0.1,2.7-0.3l0.1,0.9c-1.2,0.3-2.3,0.4-3.1,0.4
		c-1.1,0-1.9-0.3-2.5-0.8c-0.6-0.6-0.9-1.4-0.9-2.4c0-1.9,1-2.9,3-2.9c0.5,0,1,0.1,1.5,0.2c0.4,0.1,0.8,0.3,1,0.4v-3.9
		c0-0.5-0.1-0.9-0.4-1.1c-0.3-0.2-0.6-0.4-1.1-0.4c-0.4,0-1.3,0.1-2.6,0.2l-0.4,0l0-0.8c1.5-0.3,2.6-0.5,3.3-0.5
		c1.6,0,2.4,0.8,2.4,2.5v3.9H218.9z M214.2,70.5h1.1v1.2h-1.1V70.5z"/>
	<path class="st0" d="M226.5,62.7c0.6,0.6,0.8,1.6,0.8,2.9v3.6h-8.5v-1h2.4c-0.1-0.8-0.2-1.7-0.2-2.5c0-0.6,0-1.3,0.1-1.9
		c0.1-0.6,0.2-1.2,0.3-1.6c0.2-0.1,0.6-0.2,1-0.3c0.4-0.1,0.9-0.1,1.4-0.1C225.1,61.9,226,62.2,226.5,62.7z M222.3,67.2
		c0,0.5,0.1,0.8,0.1,1.1h3.8v-2.7c0-1-0.2-1.7-0.6-2.1c-0.4-0.4-1.1-0.6-1.9-0.6c-0.5,0-0.9,0-1.3,0.1c-0.2,0.8-0.2,1.8-0.2,2.7
		C222.2,66.2,222.2,66.7,222.3,67.2z"/>
	<path class="st0" d="M232,68.3v1h-2.5V58.8h1.1v9.5H232z"/>
	<path class="st0" d="M235.3,62v7.3H232v-1h2.2V62H235.3z M234.2,59.4h1.1v1.2h-1.1V59.4z"/>
	<path class="st0" d="M242.4,69.3h-1.8v0.2c0,2.3-0.8,3.5-2.4,3.5c-0.2,0-0.3,0-0.4,0c-0.1,0-0.2,0-0.3,0l-0.3,0v-1
		c0.5,0,0.8,0.1,0.9,0.1c0.5,0,0.8-0.2,1.1-0.6s0.4-0.9,0.4-1.6V62h1.1v6.3h1.8V69.3z"/>
	<path class="st0" d="M245.7,62v7.3h-3.3v-1h2.2V62H245.7z M244.5,70.5h1.1v1.2h-1.1V70.5z"/>
</g>
<path class="st1" d="M43.1,13.6C59.8,15,72.9,29.1,72.9,46.2c0,10.8-5.2,20.4-13.3,26.3V57.7L54,61.4v14.5c-0.9,0.4-1.7,0.8-2.6,1.1
	V33.2l-5.7,3.7v46.6c-0.9,0.1-1.7,0.3-2.6,0.3V13.6L43.1,13.6z M31.7,9.3l5.7-3v7.3v9.1v56c-0.9-0.1-1.8-0.2-2.6-0.3V25.2l-5.7,3.7
	v48c-0.9-0.3-1.8-0.7-2.6-1.1V44.3L20.8,48v24.5C12.8,66.5,7.5,57,7.5,46.2c0-14.8,9.9-27.3,23.4-31.3c0.3-0.1,0.6-0.2,0.8-0.2V9.3
	L31.7,9.3z"/>
</svg>
