<svg xmlns="http://www.w3.org/2000/svg" width="512" height="512" viewBox="0 0 512 512" fill="none">
  <rect width="512" height="512" rx="96" fill="none"/>
  <g filter="url(#s)">
    <path d="M256 88c-75 0-136 61-136 136v54c0 15-6 30-17 41l-13 13c-13 13-4 35 15 35h302c19 0 28-22 15-35l-13-13c-11-11-17-26-17-41v-54c0-75-61-136-136-136z" fill="url(#g)" stroke="#8CB7FF" stroke-width="8"/>
    <path d="M211 392c7 24 25 38 45 38s38-14 45-38" stroke="#2563EB" stroke-width="16" stroke-linecap="round"/>
    <circle cx="330" cy="130" r="27" fill="#38BDF8"/>
    <path d="M199 253h114M199 290h86" stroke="#fff" stroke-opacity=".72" stroke-width="13" stroke-linecap="round"/>
    <path d="M256 125v-37" stroke="#2563EB" stroke-width="14" stroke-linecap="round"/>
  </g>
  <defs><linearGradient id="g" x1="91" y1="88" x2="421" y2="430"><stop stop-color="#E0F2FE"/><stop offset=".5" stop-color="#93C5FD"/><stop offset="1" stop-color="#2563EB"/></linearGradient><filter id="s" x="45" y="46" width="422" height="426" filterUnits="userSpaceOnUse"><feDropShadow dx="0" dy="22" stdDeviation="24" flood-color="#2563EB" flood-opacity=".24"/></filter></defs>
</svg>
